<?xml version="1.0" encoding="UTF-8"?>
<!DOCTYPE svg PUBLIC "-//W3C//DTD SVG 1.1//EN" "http://www.w3.org/Graphics/SVG/1.1/DTD/svg11.dtd">
<!-- Creator: CorelDRAW 2020 (64-Bit) -->
<svg xmlns="http://www.w3.org/2000/svg" xml:space="preserve" width="5.2938mm" height="5.9267mm" version="1.1" style="shape-rendering:geometricPrecision; text-rendering:geometricPrecision; image-rendering:optimizeQuality; fill-rule:evenodd; clip-rule:evenodd"
viewBox="0 0 109.37 122.44"
 xmlns:xlink="http://www.w3.org/1999/xlink"
 xmlns:xodm="http://www.corel.com/coreldraw/odm/2003">
 <defs>
  <style type="text/css">
   <![CDATA[
    .fil0 {fill:black;fill-rule:nonzero}
   ]]>
  </style>
 </defs>
 <g id="Слой_x0020_1">
  <metadata id="CorelCorpID_0Corel-Layer"/>
  <path class="fil0" d="M27.31 46.5l54.64 0c0.67,0 1.21,0.54 1.21,1.21l0 73.52c0,0.67 -0.54,1.21 -1.21,1.21l-54.64 0c-0.67,0 -1.21,-0.54 -1.21,-1.21l0 -73.52c0,-0.67 0.54,-1.21 1.21,-1.21zm53.43 2.43l-52.22 0 0 71.09 52.22 0 0 -71.09z"/>
  <path class="fil0" d="M103.89 25.08l-98.48 0c-0.83,0 -1.57,0.33 -2.11,0.87 -0.54,0.54 -0.88,1.29 -0.88,2.11l0 46.62 17.05 0 0 -30.08c0,-1.12 0.46,-2.15 1.2,-2.9 0.74,-0.74 1.76,-1.2 2.89,-1.2l62.22 0c1.12,0 2.15,0.46 2.9,1.2 0.74,0.74 1.2,1.76 1.2,2.89l0 30.08 17.05 0 0 -46.62 0 -0.06c-0.04,-0.79 -0.39,-1.51 -0.93,-2.04 -0.55,-0.54 -1.3,-0.88 -2.13,-0.88zm-98.48 -2.43l98.48 0c1.49,0 2.84,0.6 3.83,1.58 0.96,0.95 1.58,2.25 1.64,3.69 0.01,0.05 0.01,0.1 0.01,0.15l0 47.83c0,0.67 -0.54,1.21 -1.21,1.21l-19.48 0c-0.67,0 -1.21,-0.54 -1.21,-1.21l0 -31.29c0,-0.46 -0.19,-0.88 -0.49,-1.18 -0.31,-0.31 -0.73,-0.49 -1.18,-0.49l-62.22 0c-0.46,0 -0.88,0.19 -1.18,0.49 -0.3,0.31 -0.49,0.73 -0.49,1.18l0 31.29c0,0.67 -0.54,1.21 -1.21,1.21l-19.48 0c-0.67,0 -1.21,-0.54 -1.21,-1.21l0 -47.83c0,-1.49 0.61,-2.84 1.59,-3.83 0.98,-0.98 2.32,-1.58 3.82,-1.58z"/>
  <path class="fil0" d="M23.65 22.66l62 0 0 -20.23 -62 0 0 20.23zm63.21 2.43l-64.42 0c-0.67,0 -1.21,-0.54 -1.21,-1.21l0 -22.66c0,-0.67 0.54,-1.21 1.21,-1.21l64.42 0c0.67,0 1.21,0.54 1.21,1.21l0 22.66c0,0.67 -0.54,1.21 -1.21,1.21z"/>
  <path class="fil0" d="M32.23 55.45c-0.67,0 -1.21,-0.54 -1.21,-1.21 0,-0.67 0.54,-1.21 1.21,-1.21l44.83 0c0.67,0 1.21,0.54 1.21,1.21 0,0.67 -0.54,1.21 -1.21,1.21l-44.83 0z"/>
  <path class="fil0" d="M32.23 63.02c-0.67,0 -1.21,-0.54 -1.21,-1.21 0,-0.67 0.54,-1.21 1.21,-1.21l44.83 0c0.67,0 1.21,0.54 1.21,1.21 0,0.67 -0.54,1.21 -1.21,1.21l-44.83 0z"/>
  <path class="fil0" d="M32.23 70.56c-0.67,0 -1.21,-0.54 -1.21,-1.21 0,-0.67 0.54,-1.21 1.21,-1.21l44.83 0c0.67,0 1.21,0.54 1.21,1.21 0,0.67 -0.54,1.21 -1.21,1.21l-44.83 0z"/>
  <path class="fil0" d="M32.23 78.13c-0.67,0 -1.21,-0.54 -1.21,-1.21 0,-0.67 0.54,-1.21 1.21,-1.21l44.83 0c0.67,0 1.21,0.54 1.21,1.21 0,0.67 -0.54,1.21 -1.21,1.21l-44.83 0z"/>
  <path class="fil0" d="M32.23 85.7c-0.67,0 -1.21,-0.54 -1.21,-1.21 0,-0.67 0.54,-1.21 1.21,-1.21l44.83 0c0.67,0 1.21,0.54 1.21,1.21 0,0.67 -0.54,1.21 -1.21,1.21l-44.83 0z"/>
  <path class="fil0" d="M32.23 93.24c-0.67,0 -1.21,-0.54 -1.21,-1.21 0,-0.67 0.54,-1.21 1.21,-1.21l44.83 0c0.67,0 1.21,0.54 1.21,1.21 0,0.67 -0.54,1.21 -1.21,1.21l-44.83 0z"/>
  <path class="fil0" d="M32.23 100.81c-0.67,0 -1.21,-0.54 -1.21,-1.21 0,-0.67 0.54,-1.21 1.21,-1.21l44.83 0c0.67,0 1.21,0.54 1.21,1.21 0,0.67 -0.54,1.21 -1.21,1.21l-44.83 0z"/>
  <path class="fil0" d="M32.23 108.38c-0.67,0 -1.21,-0.54 -1.21,-1.21 0,-0.67 0.54,-1.21 1.21,-1.21l44.83 0c0.67,0 1.21,0.54 1.21,1.21 0,0.67 -0.54,1.21 -1.21,1.21l-44.83 0z"/>
  <path class="fil0" d="M32.23 115.92c-0.67,0 -1.21,-0.54 -1.21,-1.21 0,-0.67 0.54,-1.21 1.21,-1.21l44.83 0c0.67,0 1.21,0.54 1.21,1.21 0,0.67 -0.54,1.21 -1.21,1.21l-44.83 0z"/>
  <path class="fil0" d="M6.89 30.93c-0.67,0 -1.21,-0.54 -1.21,-1.21 0,-0.67 0.54,-1.21 1.21,-1.21l7.28 0c0.67,0 1.21,0.54 1.21,1.21 0,0.67 -0.54,1.21 -1.21,1.21l-7.28 0z"/>
  <path class="fil0" d="M19.98 30.93c-0.67,0 -1.21,-0.54 -1.21,-1.21 0,-0.67 0.54,-1.21 1.21,-1.21l7.28 0c0.67,0 1.21,0.54 1.21,1.21 0,0.67 -0.54,1.21 -1.21,1.21l-7.28 0z"/>
  <path class="fil0" d="M85.35 31.17c0,-0.23 -0.1,-0.45 -0.25,-0.6 -0.15,-0.15 -0.37,-0.25 -0.6,-0.25 -0.24,0 -0.45,0.1 -0.6,0.25 -0.15,0.15 -0.25,0.37 -0.25,0.6 0,0.24 0.1,0.45 0.25,0.6 0.15,0.15 0.37,0.25 0.6,0.25 0.23,0 0.45,-0.1 0.6,-0.25 0.15,-0.15 0.25,-0.37 0.25,-0.6zm1.47 -2.31c0.59,0.59 0.96,1.41 0.96,2.31 0,0.9 -0.37,1.72 -0.96,2.32 -0.59,0.59 -1.41,0.96 -2.31,0.96 -0.9,0 -1.72,-0.37 -2.32,-0.96 -0.59,-0.59 -0.96,-1.41 -0.96,-2.32 0,-0.9 0.37,-1.72 0.96,-2.31 0.59,-0.59 1.41,-0.96 2.32,-0.96 0.9,0 1.72,0.37 2.31,0.96z"/>
  <path class="fil0" d="M93.26 31.17c0,-0.23 -0.1,-0.45 -0.25,-0.6 -0.15,-0.15 -0.37,-0.25 -0.6,-0.25 -0.24,0 -0.45,0.1 -0.6,0.25 -0.15,0.15 -0.25,0.37 -0.25,0.6 0,0.24 0.1,0.45 0.25,0.6 0.15,0.15 0.37,0.25 0.6,0.25 0.24,0 0.45,-0.1 0.6,-0.25 0.15,-0.15 0.25,-0.37 0.25,-0.6zm1.47 -2.31c0.59,0.59 0.96,1.41 0.96,2.31 0,0.9 -0.37,1.72 -0.96,2.32 -0.59,0.59 -1.41,0.96 -2.32,0.96 -0.9,0 -1.72,-0.37 -2.32,-0.96 -0.59,-0.59 -0.96,-1.41 -0.96,-2.32 0,-0.9 0.37,-1.72 0.96,-2.31 0.59,-0.59 1.41,-0.96 2.32,-0.96 0.9,0 1.72,0.37 2.32,0.96z"/>
  <path class="fil0" d="M101.19 31.17c0,-0.23 -0.1,-0.45 -0.25,-0.6 -0.15,-0.15 -0.37,-0.25 -0.6,-0.25 -0.24,0 -0.45,0.1 -0.61,0.25 -0.15,0.15 -0.24,0.36 -0.24,0.6 0,0.24 0.09,0.45 0.24,0.6 0.15,0.15 0.37,0.25 0.61,0.25 0.24,0 0.45,-0.1 0.6,-0.25 0.15,-0.15 0.25,-0.37 0.25,-0.6zm1.47 -2.31c0.59,0.59 0.96,1.41 0.96,2.31 0,0.9 -0.37,1.72 -0.96,2.32 -0.59,0.59 -1.41,0.96 -2.32,0.96 -0.9,0 -1.72,-0.37 -2.31,-0.96 -0.59,-0.59 -0.96,-1.41 -0.96,-2.32 0,-0.9 0.37,-1.72 0.96,-2.31 0.59,-0.59 1.41,-0.96 2.31,-0.96 0.9,0 1.72,0.37 2.32,0.96z"/>
 </g>
</svg>
